<?xml version="1.0" encoding="utf-8"?>
<!-- Generator: Adobe Illustrator 16.0.0, SVG Export Plug-In . SVG Version: 6.00 Build 0)  -->
<!DOCTYPE svg PUBLIC "-//W3C//DTD SVG 1.1//EN" "http://www.w3.org/Graphics/SVG/1.1/DTD/svg11.dtd">
<svg version="1.1" id="Layer_1" xmlns:svg="http://www.w3.org/2000/svg"
	 xmlns="http://www.w3.org/2000/svg" xmlns:xlink="http://www.w3.org/1999/xlink" x="0px" y="0px" width="30px" height="30px"
	 viewBox="305 305 30 30" enable-background="new 305 305 30 30" xml:space="preserve">
<title>blue bus - 90</title>
<g>
	<title>Layer 1</title>
	<g id="g10" transform="rotate(-90 323.22875976562506,314.0731201171875) ">
		<path id="path342" fill="#2A7FFF" d="M302.773,307.136c-0.188,0.764-0.235,2.18-0.235,3.602c0,1.417,0.048,2.832,0.235,3.597
			c0.142,0.593,0.687,0.878,1.475,0.854h23.239c1.051,0.011,2.045,0.015,2.506-0.062c1.021-0.165,1.737-0.457,1.896-0.944
			c0.3-0.897,0.441-2.173,0.441-3.449c0-1.271-0.138-2.546-0.439-3.447c-0.158-0.487-0.876-0.778-1.898-0.944
			c-0.461-0.073-1.455-0.073-2.506-0.062h-23.239C303.459,306.258,302.914,306.543,302.773,307.136"/>
		<path id="path344" fill="#8D8F93" d="M326.106,315.057l-3.399-0.176c-0.432-0.024-0.68-0.126-0.705-0.216l-0.073-0.281
			c-0.015-0.06,0.195-0.1,0.508-0.1h0.659c0.71,0,1.295,0.023,1.716,0.09l1.352,0.201c0.295,0.044,0.504,0.104,0.501,0.18
			l-0.003,0.235C326.662,315.037,326.357,315.073,326.106,315.057"/>
		<path id="path346" fill="#D2D2D1" d="M324.592,314.369l0.253,0.599l-2.134-0.11c-0.151-0.012-0.305-0.032-0.453-0.065
			c-0.26-0.07-0.232-0.136-0.302-0.413c0-0.054,0.379-0.074,0.425-0.074C323.119,314.304,323.859,314.295,324.592,314.369"/>
		<path id="path348" fill="#D2D2D1" d="M325.084,314.981l-0.244-0.577c0.56,0.086,1.139,0.13,1.683,0.275
			c0.173,0.057,0.119,0.112,0.117,0.308c-0.049,0.046-0.421,0.046-0.485,0.046L325.084,314.981"/>
		<path id="path350" fill="#8D8F93" d="M326.67,315.033c0.072,0,0.13,0.03,0.218,0.124c0.141,0.147,0.071,0.231,0.024,0.403
			c-0.05,0.179-0.016,0.155-0.139,0.335c-0.075,0.105-0.156,0.122-0.29,0.122c-0.068,0-0.137-0.057-0.122-0.122l0.187-0.738
			C326.564,315.087,326.606,315.033,326.67,315.033"/>
		<path id="path352" fill="#8D8F93" d="M326.683,315.033c0.068,0.004,0.14,0.05,0.208,0.124c0.023,0.021,0.039,0.046,0.051,0.071
			c0.097-0.146,0.166-0.437,0.034-0.442c-0.114-0.015-0.166,0.006-0.218,0.016C326.693,314.815,326.662,314.941,326.683,315.033"/>
		<path id="path354" fill="#8D8F93" d="M322.199,314.911h0.153c0.102,0,0.187,0.021,0.187,0.04v0.142
			c0,0.021-0.083,0.034-0.187,0.034h-0.153c-0.104,0-0.187-0.014-0.187-0.034v-0.142
			C322.012,314.927,322.095,314.911,322.199,314.911"/>
		<path id="path358" fill="#8D8F93" d="M321.654,314.037l0.004,0.116c1.591,0.006,3.057,0.01,3.3,0.05v-0.004
			c1.196,0.146,2.036,0.487,2.819,0.411c0.55-0.056,0.676-0.377,0.769-0.729c0.283-1.063,0.41-2.099,0.41-3.148
			c0-1.045-0.109-2.08-0.406-3.136c-0.097-0.351-0.22-0.674-0.773-0.728c-0.783-0.078-1.62,0.264-2.819,0.406v-0.002l-0.447,0.055
			c-0.014,0.033-0.024,0.071-0.024,0.111l0.433-0.055c0.148,1.144,0.257,2.248,0.257,3.358c0,1.105-0.117,2.211-0.261,3.35
			C324.711,314.027,323.665,314.037,321.654,314.037"/>
		<path id="path360" fill="#D2D2D1" d="M325.108,308.121c0.129,1.11,0.202,2.235,0.151,3.35c-0.014,0.663-0.092,1.341-0.165,2
			c-0.025,0.212-0.054,0.427-0.081,0.643c0.778,0.1,1.544,0.331,2.326,0.407c0.355,0.02,0.783,0.025,0.988-0.317
			c0.132-0.229,0.194-0.577,0.251-0.838c0.417-1.858,0.386-3.903-0.117-5.74c-0.068-0.243-0.144-0.462-0.383-0.583
			c-0.436-0.183-1.083-0.045-1.531,0.043c-0.495,0.113-1.018,0.223-1.526,0.281c-0.009,0.05,0.018,0.166,0.023,0.224
			C325.066,307.76,325.089,307.945,325.108,308.121"/>
		<path id="path362" fill="#3B3B3C" d="M329.404,310.381l-0.181-2.019c-0.003-0.024,0.039-0.055,0.075-0.055l0.396,0.06
			c0.049,0.005,0.084,0.045,0.085,0.06l0.17,1.909c0.002,0.015-0.032,0.045-0.074,0.05l-0.388,0.035
			C329.443,310.421,329.405,310.407,329.404,310.381"/>
		<path id="path364" fill="#E9E8E8" d="M330.11,314.169c-0.103,0.577,0.302,0.924,0.93,0.381c0.202-0.181,0.604-0.672,0.6-1.586
			C331.176,313.089,330.193,313.692,330.11,314.169"/>
		<path id="path368" fill="#8D8F93" d="M304.796,307.829c0-0.157-0.034-0.277-0.074-0.277h-0.356c-0.04,0-0.212,0.176-0.214,0.323
			c-0.088,1.181-0.146,2.019-0.146,2.868c0,0.839,0.058,1.688,0.144,2.867c0.004,0.146,0.176,0.317,0.216,0.317h0.356
			c0.04,0,0.074-0.12,0.074-0.275c-0.062-0.97-0.113-1.935-0.113-2.909C304.683,309.763,304.706,308.799,304.796,307.829"/>
		<path id="path370" fill="#D2D2D1" d="M304.371,307.577c-0.096,0.031-0.182,0.207-0.194,0.298
			c-0.054,0.813-0.144,1.653-0.144,2.471c-0.029,1.084,0.07,2.18,0.14,3.26c0.017,0.09,0.103,0.266,0.198,0.295h0.353
			c0.088-0.176,0.032-0.511,0.019-0.702c-0.048-0.93-0.106-1.888-0.08-2.823c0-0.848,0.042-1.702,0.109-2.546
			c0-0.083-0.01-0.174-0.048-0.252H304.371"/>
		<path id="path372" fill="#8D8F93" d="M302.666,307.136c0.116-0.593,0.577-0.882,1.231-0.857h0.096l0.061,0.912l-1.158-0.061
			c-0.184,0.82-0.261,2.207-0.261,3.599c0,1.371,0.067,2.746,0.259,3.606l1.16-0.061l-0.066,0.914h-0.09
			c-0.654,0.024-1.115-0.261-1.231-0.859c-0.155-0.759-0.195-2.174-0.195-3.596C302.471,309.552,302.433,308.286,302.666,307.136"/>
		<path id="path374" fill="#8D8F93" d="M331.515,313.004v-0.006h0.018L331.515,313.004z M331.513,308.478h0.02H331.513
			L331.513,308.478z M330.402,306.663c0.166-0.03,0.384,0.041,0.643,0.264c0.194,0.182,0.595,0.664,0.6,1.552h0.024
			c0.205,0.632,0.304,1.346,0.292,2.159h-0.003l0.003,0.015c-0.003,0.06-0.003,0.125-0.005,0.19h0.01
			c0.01,0.809-0.088,1.528-0.295,2.155h-0.026c-0.005,0.894-0.402,1.371-0.6,1.552c-0.259,0.227-0.477,0.296-0.64,0.266
			l-0.298,0.348c0.106-0.01,0.201-0.02,0.275-0.036c0.852-0.165,1.447-0.457,1.579-0.944c0.253-0.897,0.37-2.169,0.37-3.449
			c0-0.031,0-0.066,0-0.096h-0.002c-0.006-1.24-0.123-2.466-0.368-3.342c-0.132-0.487-0.727-0.778-1.579-0.944
			c-0.078-0.015-0.171-0.024-0.277-0.035L330.402,306.663"/>
		<path id="path376" fill="#8D8F93" d="M326.109,306.418l-3.4,0.177c-0.432,0.023-0.679,0.124-0.705,0.217l-0.073,0.281
			c-0.015,0.06,0.195,0.1,0.509,0.1h0.657c0.711,0,1.296-0.025,1.717-0.089l1.352-0.204c0.294-0.042,0.503-0.105,0.501-0.18
			l-0.005-0.237C326.663,306.437,326.359,306.404,326.109,306.418"/>
		<path id="path378" fill="#D2D2D1" d="M324.592,307.108l0.253-0.601l-2.134,0.113c-0.151,0.004-0.305,0.027-0.453,0.065
			c-0.26,0.068-0.232,0.133-0.302,0.412c0,0.052,0.379,0.073,0.425,0.073C323.119,307.171,323.859,307.183,324.592,307.108"/>
		<path id="path380" fill="#D2D2D1" d="M325.084,306.495l-0.244,0.575c0.56-0.083,1.139-0.128,1.683-0.273
			c0.173-0.056,0.119-0.111,0.117-0.306c-0.049-0.048-0.421-0.048-0.485-0.048L325.084,306.495"/>
		<path id="path382" fill="#8D8F93" d="M326.673,306.444c0.07,0,0.129-0.03,0.217-0.123c0.14-0.147,0.07-0.231,0.023-0.404
			c-0.05-0.181-0.016-0.154-0.138-0.334c-0.075-0.106-0.156-0.121-0.291-0.121c-0.069,0-0.137,0.056-0.122,0.121l0.188,0.738
			C326.567,306.389,326.608,306.444,326.673,306.444"/>
		<path id="path384" fill="#8D8F93" d="M326.685,306.444c0.068-0.002,0.14-0.047,0.208-0.123c0.024-0.02,0.039-0.045,0.052-0.07
			c0.097,0.143,0.166,0.434,0.034,0.441c-0.115,0.013-0.166-0.004-0.218-0.017C326.695,306.663,326.663,306.535,326.685,306.444"/>
		<path id="path386" fill="#8D8F93" d="M322.202,306.565h0.151c0.103,0,0.188-0.018,0.188-0.038v-0.14
			c0-0.021-0.083-0.038-0.188-0.038h-0.151c-0.105,0-0.188,0.017-0.188,0.038v0.14C322.014,306.55,322.097,306.565,322.202,306.565"
			/>
		<path id="path390" fill="#E9E8E8" d="M330.11,307.306c-0.103-0.578,0.302-0.925,0.93-0.38c0.202,0.179,0.604,0.673,0.6,1.586
			C331.176,308.387,330.193,307.783,330.11,307.306"/>
		<path id="path404" fill="#3B3B3C" d="M331.496,312.822c0.084-0.024,0.125-0.054,0.169-0.13c0.03-0.05,0.077-0.132,0.082-0.271
			c0.094-0.411,0.145-1.045,0.145-1.678c0-0.633-0.067-1.261-0.144-1.667c-0.005-0.141-0.052-0.222-0.082-0.276
			c-0.044-0.076-0.085-0.106-0.169-0.126c0.159,0.684,0.208,1.361,0.225,2.045C331.741,311.425,331.611,312.189,331.496,312.822"/>
		<path id="path406" fill="#E9E8E8" d="M331.883,310.748c0,0.161-0.039,0.292-0.086,0.292c-0.048,0-0.087-0.131-0.087-0.292
			s0.039-0.292,0.087-0.292C331.844,310.457,331.883,310.588,331.883,310.748"/>
		<path id="path866" fill="#211D1D" d="M309.077,314.279l11.502,0.025l0,0L309.077,314.279"/>
		<path id="path868" fill="#211D1D" d="M320.579,314.304c0.185,0,0.326,0.004,0.423,0.021c0.097,0.014,0.146,0.044,0.146,0.079
			h0.002C321.151,314.329,320.947,314.304,320.579,314.304L320.579,314.304"/>
		<path id="path870" fill="#211D1D" d="M321.149,314.635h0.002v-0.231h-0.002V314.635z"/>
		<path id="path872" fill="#211D1D" d="M321.149,314.635c0,0.051-0.044,0.116-0.21,0.15l0,0c0.168-0.034,0.212-0.1,0.212-0.15
			H321.149"/>
		<path id="path874" fill="#211D1D" d="M320.939,314.786l-0.718,0.146h0.003L320.939,314.786"/>
		<path id="path876" fill="#211D1D" d="M320.221,314.931c-0.301,0.06-0.401,0.082-1.012,0.082c-0.02,0-0.04,0-0.065,0l0,0
			c0.025,0,0.045,0,0.065,0c0.611,0,0.71-0.017,1.015-0.082H320.221"/>
		<path id="path878" fill="#211D1D" d="M319.144,315.013l-10.129-0.022l0,0L319.144,315.013"/>
		<path id="path880" fill="#211D1D" d="M315.425,314.149l0.03,1.039l0,0l-0.028-1.039"/>
		<path id="path882" fill="#211D1D" d="M331.214,312.967c-0.845,0.151-1.625,0.337-2.335,0.579v0.004
			c0.71-0.242,1.491-0.432,2.335-0.577V312.967"/>
		<path id="path884" fill="#211D1D" d="M330.116,314.218c-0.637,0.12-1.381,0.212-1.814,0.212c-0.104,0-0.19-0.006-0.253-0.016l0,0
			c0.063,0.01,0.149,0.016,0.253,0.016C328.735,314.43,329.479,314.339,330.116,314.218L330.116,314.218"/>
		<path id="path888" fill="#211D1D" d="M321.658,315.188L321.658,315.188l0.001-1.151h-0.001V315.188z"/>
		<path id="path890" fill="#211D1D" d="M321.411,315.188h0.002v-4.632h-0.002V315.188z"/>
		<path id="path894" fill="#211D1D" d="M309.037,314.153h12.617l0,0H309.037L309.037,314.153z"/>
		<path id="path896" fill="#211D1D" d="M309.037,314.037h12.617v-0.004h-12.617V314.037z"/>
		<path id="path898" fill="#211D1D" d="M327.296,314.58l-0.065,0.623h0.001L327.296,314.58"/>
		<path id="path900" fill="#211D1D" d="M309.077,307.198l11.502-0.025l0,0L309.077,307.198"/>
		<path id="path902" fill="#211D1D" d="M320.579,307.172c0.368,0,0.572-0.024,0.572-0.101h-0.002c0,0.036-0.05,0.061-0.146,0.078
			C320.905,307.166,320.764,307.172,320.579,307.172L320.579,307.172"/>
		<path id="path904" fill="#211D1D" d="M321.149,307.072h0.002v-0.23h-0.002V307.072z"/>
		<path id="path906" fill="#211D1D" d="M321.151,306.841c0-0.05-0.044-0.118-0.212-0.15l0,0c0.167,0.035,0.21,0.101,0.21,0.15
			H321.151"/>
		<path id="path908" fill="#211D1D" d="M320.939,306.691l-0.714-0.148h-0.003L320.939,306.691"/>
		<path id="path910" fill="#211D1D" d="M320.224,306.543c-0.302-0.063-0.404-0.078-1.01-0.078c-0.02,0-0.045,0-0.07,0l0,0
			c0.025,0,0.05,0,0.07,0c0.606,0,0.708,0.017,1.007,0.078H320.224"/>
		<path id="path912" fill="#211D1D" d="M319.144,306.465l-10.129,0.02l0,0L319.144,306.465"/>
		<path id="path914" fill="#211D1D" d="M315.429,307.326l0.026-1.04l0,0L315.429,307.326"/>
		<path id="path916" fill="#211D1D" d="M331.214,308.503c-0.844-0.146-1.625-0.337-2.335-0.578l0,0
			C329.589,308.172,330.368,308.357,331.214,308.503L331.214,308.503"/>
		<path id="path918" fill="#211D1D" d="M330.116,307.255c-0.637-0.12-1.381-0.21-1.814-0.21c-0.104,0-0.19,0.005-0.253,0.017l0,0
			c0.063-0.01,0.149-0.015,0.253-0.015C328.735,307.047,329.479,307.136,330.116,307.255L330.116,307.255"/>
		<path id="path922" fill="#211D1D" d="M321.66,307.439h0.002v-1.147h-0.002V307.439z"/>
		<path id="path926" fill="#211D1D" d="M309.037,307.323h12.617l0,0H309.037L309.037,307.323z"/>
		<path id="path928" fill="#211D1D" d="M309.037,307.441h12.617v-0.002h-12.617V307.441z"/>
		<path id="path930" fill="#211D1D" d="M327.3,306.896l-0.066-0.623h-0.001l0.065,0.623"/>
		<path id="path952" fill="#211D1D" d="M331.438,313.033c0.172-0.668,0.294-1.391,0.294-2.245c0-0.091-0.002-0.18-0.004-0.271
			h-0.001c0.002,0.091,0.003,0.18,0.003,0.271C331.731,311.642,331.61,312.365,331.438,313.033L331.438,313.033"/>
		<path id="path954" fill="#211D1D" d="M331.435,308.463c0.172,0.667,0.293,1.391,0.293,2.245c0,0.09-0.001,0.181-0.004,0.271h0.001
			c0.003-0.09,0.004-0.181,0.004-0.271C331.73,309.854,331.608,309.13,331.435,308.463L331.435,308.463"/>
		<path id="rect4902" fill="#D2D2D1" d="M305.71,306.585h15.074c0.231,0,0.417,0.188,0.417,0.42l0,0
			c0,0.229-0.186,0.416-0.417,0.416H305.71c-0.229,0-0.415-0.188-0.415-0.416l0,0C305.295,306.774,305.481,306.585,305.71,306.585z"
			/>
		<path id="path386-4-4" fill="#8D8F93" d="M317.783,306.881v0.251c0,0.168,0.01,0.308,0.025,0.308h0.09
			c0.013,0,0.026-0.138,0.026-0.312v-0.248c0-0.173-0.013-0.312-0.026-0.312h-0.093C317.793,306.57,317.783,306.709,317.783,306.881
			"/>
		<path id="path386-4-4-6" fill="#8D8F93" d="M319.832,306.899v0.251c0,0.171,0.01,0.312,0.026,0.312l0.09-0.003
			c0.015,0,0.025-0.136,0.025-0.309v-0.251c0-0.173-0.01-0.309-0.025-0.309h-0.09C319.842,306.59,319.832,306.726,319.832,306.899"
			/>
		<path id="path386-4-4-4" fill="#8D8F93" d="M315.776,306.889v0.24c0,0.164,0.012,0.302,0.026,0.302h0.09
			c0.014-0.002,0.023-0.133,0.023-0.302v-0.243c0-0.166-0.01-0.298-0.023-0.298h-0.09
			C315.786,306.588,315.776,306.721,315.776,306.889"/>
		<path id="path386-4-4-4-0" fill="#8D8F93" d="M313.689,306.896l0.004,0.244c0,0.164,0.011,0.299,0.024,0.299h0.09
			c0.014,0,0.026-0.133,0.026-0.301l-0.002-0.242c0-0.167-0.011-0.301-0.026-0.301l-0.09,0.003
			C313.703,306.598,313.689,306.731,313.689,306.896"/>
		<path id="path386-4-4-4-2" fill="#8D8F93" d="M311.648,306.896v0.244c0,0.164,0.012,0.299,0.025,0.299h0.09
			c0.017,0,0.026-0.133,0.026-0.301v-0.242c0-0.167-0.01-0.301-0.026-0.301l-0.09,0.003
			C311.657,306.598,311.648,306.731,311.648,306.896"/>
		<path id="path386-4-4-4-2-9" fill="#8D8F93" d="M309.598,306.896v0.244c0,0.164,0.016,0.299,0.026,0.299h0.094
			c0.012,0,0.021-0.133,0.021-0.301v-0.242c0-0.167-0.01-0.301-0.025-0.301l-0.09,0.003
			C309.608,306.598,309.598,306.731,309.598,306.896"/>
		<path id="rect4902-7" fill="#D2D2D1" d="M305.656,314.113h15.127c0.231,0,0.417,0.186,0.417,0.417l0,0
			c0,0.231-0.186,0.417-0.417,0.417h-15.127c-0.231,0-0.417-0.186-0.417-0.417l0,0C305.239,314.298,305.425,314.113,305.656,314.113
			z"/>
		<path id="path386-4-4-43" fill="#8D8F93" d="M317.783,314.411v0.249c0,0.165,0.01,0.308,0.025,0.308h0.09
			c0.013,0,0.026-0.136,0.026-0.312v-0.245c0-0.178-0.013-0.312-0.026-0.312h-0.093
			C317.793,314.099,317.783,314.233,317.783,314.411"/>
		<path id="path386-4-4-6-7" fill="#8D8F93" d="M319.832,314.424v0.251c0,0.17,0.01,0.312,0.026,0.312h0.09
			c0.015,0,0.025-0.136,0.025-0.312v-0.251c0-0.17-0.01-0.312-0.025-0.312l-0.09,0.006
			C319.842,314.119,319.832,314.255,319.832,314.424"/>
		<path id="path386-4-4-4-5" fill="#8D8F93" d="M315.776,314.415v0.241c0,0.165,0.012,0.302,0.026,0.302h0.09
			c0.014,0,0.023-0.133,0.023-0.302v-0.241c0-0.166-0.01-0.302-0.023-0.302h-0.09C315.786,314.113,315.776,314.249,315.776,314.415"
			/>
		<path id="path386-4-4-4-0-6" fill="#8D8F93" d="M313.689,314.424l0.004,0.241c0,0.166,0.011,0.302,0.024,0.302h0.09
			c0.014,0,0.026-0.136,0.026-0.302l-0.002-0.241c0-0.17-0.011-0.302-0.026-0.302h-0.09
			C313.703,314.123,313.689,314.258,313.689,314.424"/>
		<path id="path386-4-4-4-2-8" fill="#8D8F93" d="M311.648,314.424v0.241c0,0.166,0.012,0.302,0.025,0.302h0.09
			c0.017,0,0.026-0.136,0.026-0.302v-0.241c0-0.17-0.01-0.302-0.026-0.302h-0.09C311.657,314.123,311.648,314.258,311.648,314.424"
			/>
		<path id="path386-4-4-4-2-9-1" fill="#8D8F93" d="M309.598,314.424v0.241c0,0.166,0.016,0.302,0.026,0.302h0.094
			c0.012,0,0.021-0.136,0.021-0.302v-0.241c0-0.17-0.01-0.302-0.025-0.302h-0.09C309.608,314.123,309.598,314.258,309.598,314.424"
			/>
	</g>
</g>
</svg>
