<?xml version="1.0" encoding="utf-8"?>
<!-- Generator: Adobe Illustrator 16.0.0, SVG Export Plug-In . SVG Version: 6.00 Build 0)  -->
<!DOCTYPE svg PUBLIC "-//W3C//DTD SVG 1.0//EN" "http://www.w3.org/TR/2001/REC-SVG-20010904/DTD/svg10.dtd">
<svg version="1.0" id="Layer_1" xmlns="http://www.w3.org/2000/svg" xmlns:xlink="http://www.w3.org/1999/xlink" x="0px" y="0px"
	 width="50px" height="50px" viewBox="0 0 50 50" enable-background="new 0 0 50 50" xml:space="preserve">
<path fill-rule="evenodd" clip-rule="evenodd" fill="#304150" d="M24.684,1.491c-1.011,0.081-2.025,0.124-3.02,0.354
	c-0.025-0.195,0.181-0.209,0.155-0.359c-0.201-0.034-0.373,0.042-0.543,0.129c-0.52,0.02-1.04,0.067-1.514,0.293
	c-0.759,0.361-1.443,0.802-1.463,1.779c-0.163,0.138-0.325,0.277-0.487,0.416c-0.133-0.349,0.061-0.659,0.126-0.981
	c0.099-0.487,0.274-0.949,0.557-1.363c0.25-0.366,0.582-0.598,1.022-0.706c1.044-0.255,2.103-0.396,3.171-0.483
	c0.087-0.007,0.199,0.041,0.249-0.084c1.348,0,2.696,0,4.044,0c0.589,0.181,1.207,0.142,1.808,0.238
	c0.611,0.098,1.214,0.224,1.817,0.357c0.201,0.045,0.397,0.131,0.544,0.28c0.709,0.722,1.013,1.603,1.004,2.603
	c-0.2-0.015-0.284-0.217-0.454-0.282c0.017-0.492-0.223-0.868-0.563-1.186c-0.678-0.633-1.511-0.854-2.414-0.875
	c-0.188-0.124-0.39-0.188-0.629-0.142c0.066,0.136,0.288,0.127,0.266,0.363c-0.987-0.159-1.971-0.314-2.965-0.368"/>
<path fill-rule="evenodd" clip-rule="evenodd" fill="#304150" d="M21.121,49.514c-0.517-0.166-1.059-0.173-1.59-0.247
	c-0.809-0.112-1.495-0.37-1.751-1.24c-0.097-0.328-0.154-0.666-0.089-1.011c0.232-0.019,0.465-0.044,0.697-0.055
	c0.772-0.036,0.757-0.034,0.756,0.723c0,0.375-0.23,0.872,0.033,1.095c0.263,0.221,0.752,0.192,1.146,0.233
	c2.148,0.226,4.304,0.256,6.461,0.191c1.278-0.038,2.55-0.111,3.812-0.334c0.228-0.041,0.301-0.116,0.285-0.34
	c-0.031-0.411-0.021-0.825-0.061-1.234c-0.027-0.275,0.002-0.408,0.334-0.359c0.365,0.053,0.739,0.047,1.109,0.066
	c0.228,1.097-0.382,2.006-1.467,2.198c-0.689,0.123-1.385,0.175-2.082,0.231c-0.11,0.009-0.251-0.063-0.33,0.083
	C25.963,49.514,23.542,49.514,21.121,49.514z"/>
<path fill-rule="evenodd" clip-rule="evenodd" fill="#304150" d="M32.293,9.282c0.298,0.027,0.594,0.062,0.876,0.171
	c0.221,0.086,0.405,0.212,0.498,0.442c0,0.11,0,0.22,0,0.33c-0.309,0.137-0.577-0.071-0.865-0.105
	c-0.174-0.021-0.344-0.07-0.516-0.106c-0.097-0.019-0.208-0.133-0.207,0.108c0.01,2.032-0.189,4.057-0.265,6.086
	c-0.012,0.326-0.053,0.655-0.165,0.97c-0.109,0.306-0.385,0.375-0.63,0.358c-0.231-0.015-0.155-0.283-0.165-0.446
	c-0.098-1.621-0.031-3.236,0.191-4.844c0.094-0.678,0.223-1.351,0.332-2.026c0.05-0.315,0.403-0.527,0.281-0.911
	c-0.036-0.113,0.127-0.165,0.243-0.143C32.034,9.192,32.163,9.243,32.293,9.282z"/>
<path fill-rule="evenodd" clip-rule="evenodd" fill="#304150" d="M16.333,9.813c0.35-0.43,0.848-0.481,1.349-0.526
	c0.039-0.015,0.076-0.032,0.115-0.044c0.518-0.168,0.578-0.125,0.485,0.395c-0.017,0.095,0.018,0.136,0.066,0.15
	c0.26,0.079,0.246,0.319,0.282,0.504c0.438,2.259,0.651,4.535,0.513,6.838c-0.009,0.148,0.029,0.369-0.13,0.399
	c-0.188,0.035-0.419-0.011-0.559-0.185c-0.074-0.091-0.117-0.216-0.147-0.333c-0.119-0.454-0.142-0.92-0.157-1.388
	c-0.062-1.812-0.236-3.619-0.242-5.434c0-0.189-0.054-0.261-0.24-0.183c-0.45,0.041-0.86,0.325-1.334,0.219
	C16.333,10.088,16.333,9.951,16.333,9.813z"/>
<path fill-rule="evenodd" clip-rule="evenodd" fill="#0288D1" d="M32.306,17.317c0,0.195,0,0.343,0,0.492
	c0,9.499,0,18.997-0.002,28.496c0,0.232-0.027,0.464-0.041,0.696c-0.37-0.02-0.744-0.013-1.109-0.066
	c-0.332-0.049-0.361,0.084-0.334,0.359c0.04,0.409,0.03,0.823,0.061,1.234c0.017,0.225-0.057,0.3-0.285,0.34
	c-1.262,0.223-2.535,0.296-3.812,0.334c-2.158,0.064-4.313,0.034-6.461-0.191c-0.394-0.041-0.883-0.012-1.146-0.233
	c-0.264-0.223-0.033-0.719-0.033-1.095c0.001-0.757,0.016-0.759-0.756-0.723c-0.232,0.011-0.465,0.036-0.697,0.055
	c-0.008-0.165-0.021-0.329-0.021-0.494c-0.001-12.172,0-24.344,0-36.516c0.187-0.078,0.24-0.006,0.24,0.183
	c0.006,1.814,0.181,3.622,0.242,5.434c0.016,0.467,0.039,0.934,0.157,1.388c0.03,0.117,0.073,0.242,0.147,0.333
	c0.14,0.173,0.372,0.219,0.559,0.185c0.159-0.03,0.121-0.25,0.13-0.399c0.138-2.303-0.075-4.579-0.513-6.838
	c-0.036-0.185-0.021-0.426-0.282-0.504c-0.048-0.015-0.083-0.056-0.066-0.15c0.092-0.521,0.032-0.563-0.485-0.395
	c-0.039,0.013-0.077,0.03-0.115,0.044c-0.007-1.729-0.094-3.46,0.129-5.184c0.163-0.139,0.325-0.277,0.487-0.416
	c0.271,0.466,0.807,0.651,1.299,0.345c0.896-0.557,1.423-1.4,1.678-2.418c0.17-0.087,0.342-0.164,0.543-0.129
	c0.026,0.149-0.18,0.164-0.155,0.359c0.994-0.23,2.009-0.272,3.02-0.354c0.237-0.004,0.474-0.009,0.71-0.014
	c0.994,0.053,1.978,0.209,2.965,0.368c0.022-0.236-0.199-0.228-0.266-0.363c0.239-0.046,0.44,0.018,0.629,0.142
	c0.258,1.016,0.784,1.86,1.681,2.412c0.495,0.305,1.027,0.118,1.296-0.352c0.169,0.065,0.254,0.267,0.454,0.282
	c0.241,1.768,0.172,3.543,0.14,5.317c-0.13-0.04-0.259-0.09-0.393-0.117c-0.116-0.022-0.279,0.029-0.243,0.143
	c0.122,0.384-0.231,0.596-0.281,0.911c-0.108,0.676-0.238,1.349-0.332,2.026c-0.222,1.608-0.289,3.224-0.191,4.844
	c0.01,0.163-0.066,0.431,0.165,0.446c0.246,0.017,0.521-0.053,0.63-0.358c0.112-0.315,0.153-0.644,0.165-0.97
	c0.076-2.029,0.275-4.054,0.265-6.086c-0.001-0.241,0.11-0.126,0.207-0.108L32.306,17.317z M30.948,11.01
	c0.184-0.873,0.413-1.739,0.417-2.639c0.005-1.087-0.284-1.434-1.334-1.702c-1.322-0.338-2.664-0.541-4.024-0.616
	c-2.102-0.115-4.171,0.105-6.204,0.647c-0.612,0.163-1.089,0.48-1.148,1.18c-0.036,0.425-0.042,0.851,0.039,1.274
	c0.172,0.903,0.344,1.807,0.503,2.712c0.086,0.49,0.149,0.984,0.222,1.476c0.04-0.003,0.079-0.006,0.119-0.009
	c0-0.134,0.021-0.272-0.005-0.401c-0.041-0.208,0.006-0.294,0.235-0.314c1.163-0.101,2.323-0.237,3.487-0.324
	c2.329-0.175,4.64,0.066,6.949,0.326c0.232,0.026,0.274,0.098,0.27,0.332 M31.924,20.697c-0.048-0.248,0.032-0.743-0.008-1.234
	c-0.036-0.434-0.341-0.718-0.716-0.699c-0.372,0.019-0.63,0.296-0.661,0.714c-0.008,0.109-0.002,0.22-0.002,0.33
	c0,1.746,0,3.493,0,5.239c0,6.299,0,12.598,0,18.897c0,0.192-0.016,0.385,0.057,0.571c0.175,0.453,0.725,0.595,1.082,0.274
	c0.213-0.191,0.248-0.447,0.248-0.715c0-5.569,0-11.138,0.001-16.707C31.924,25.225,31.924,23.082,31.924,20.697z M18.168,31.81
	c0,4.057-0.001,8.113,0.001,12.169c0,0.562,0.271,0.9,0.695,0.898c0.43-0.002,0.687-0.333,0.688-0.899
	c0.007-4.343,0.018-8.687,0.019-13.03c0-3.35-0.06-6.699,0.021-10.049c0.011-0.471-0.005-0.957-0.041-1.434
	c-0.031-0.413-0.305-0.692-0.674-0.702c-0.351-0.009-0.625,0.236-0.69,0.635c-0.024,0.148-0.018,0.301-0.018,0.452
	C18.168,23.837,18.168,27.824,18.168,31.81z M24.958,46.962c1.516,0.039,3.022-0.116,4.533-0.193
	c0.194-0.01,0.381-0.053,0.545-0.166c0.274-0.188,0.199-0.472,0.163-0.716c-0.031-0.212-0.257-0.171-0.413-0.169
	c-0.344,0.003-0.687,0.024-1.03,0.045c-2.129,0.124-4.259,0.18-6.392,0.067c-0.728-0.038-1.455-0.077-2.183-0.116
	c-0.293-0.016-0.42,0.099-0.403,0.412c0.024,0.421,0.192,0.604,0.73,0.638C21.991,46.857,23.471,46.989,24.958,46.962z"/>
<path fill-rule="evenodd" clip-rule="evenodd" fill="#FEFEFE" d="M21.276,1.615c-0.255,1.018-0.783,1.861-1.678,2.418
	c-0.492,0.306-1.028,0.121-1.299-0.345c0.02-0.978,0.704-1.418,1.463-1.779C20.236,1.682,20.756,1.634,21.276,1.615z"/>
<path fill-rule="evenodd" clip-rule="evenodd" fill="#FEFEFE" d="M31.7,3.683c-0.269,0.47-0.801,0.657-1.296,0.352
	c-0.897-0.552-1.423-1.396-1.681-2.412c0.903,0.02,1.736,0.242,2.414,0.875C31.477,2.815,31.717,3.191,31.7,3.683z"/>
<path fill-rule="evenodd" clip-rule="evenodd" fill="#304150" d="M19.417,13.342c-0.073-0.492-0.135-0.986-0.222-1.476
	c-0.16-0.906-0.332-1.809-0.503-2.712c-0.08-0.423-0.074-0.849-0.039-1.274c0.059-0.7,0.536-1.017,1.148-1.18
	c2.033-0.542,4.102-0.762,6.204-0.647c1.361,0.075,2.703,0.277,4.024,0.616c1.051,0.268,1.339,0.615,1.334,1.702
	c-0.004,0.9-0.233,1.767-0.417,2.639c-0.345,1.64-0.252,2.71-0.476,1.941c0.004-0.234-0.038-0.306-0.27-0.332
	c-2.309-0.26-4.62-0.5-6.949-0.326c-1.164,0.087-2.324,0.223-3.487,0.324c-0.229,0.02-0.276,0.107-0.235,0.314
	c0.026,0.129,0.005,0.267,0.005,0.401C19.497,13.336,19.457,13.339,19.417,13.342z"/>
<path fill-rule="evenodd" clip-rule="evenodd" fill="#304150" d="M31.924,20.697c0,2.385,0,4.528,0,6.671
	c0,5.569-0.001,11.138-0.001,16.707c0,0.268-0.035,0.524-0.248,0.715c-0.357,0.321-0.907,0.179-1.082-0.274
	c-0.072-0.187-0.057-0.379-0.057-0.571c0-6.299,0-12.598,0-18.897c0-1.746,0-3.493,0-5.239c0-0.11-0.005-0.221,0.002-0.33
	c0.031-0.418,0.29-0.696,0.661-0.714c0.375-0.019,0.68,0.265,0.716,0.699C31.956,19.954,31.876,20.449,31.924,20.697z"/>
<path fill-rule="evenodd" clip-rule="evenodd" fill="#304150" d="M18.168,31.81c0-3.986,0-7.973,0-11.96
	c0-0.151-0.006-0.304,0.018-0.452c0.065-0.399,0.339-0.644,0.69-0.635c0.369,0.01,0.643,0.29,0.674,0.702
	c0.036,0.477,0.052,0.963,0.041,1.434c-0.08,3.35-0.021,6.7-0.021,10.049c-0.001,4.343-0.012,8.687-0.019,13.03
	c-0.001,0.566-0.258,0.897-0.688,0.899c-0.424,0.001-0.694-0.336-0.695-0.898C18.167,39.923,18.168,35.867,18.168,31.81z"/>
<path fill-rule="evenodd" clip-rule="evenodd" fill="#304150" d="M24.958,46.962c-1.487,0.027-2.967-0.104-4.449-0.198
	c-0.538-0.034-0.706-0.217-0.73-0.638c-0.018-0.313,0.11-0.428,0.403-0.412c0.728,0.039,1.455,0.078,2.183,0.116
	c2.132,0.112,4.262,0.056,6.392-0.067c0.343-0.021,0.687-0.042,1.03-0.045c0.155-0.002,0.382-0.043,0.413,0.169
	c0.036,0.244,0.111,0.529-0.163,0.716c-0.165,0.113-0.351,0.156-0.545,0.166C27.98,46.846,26.473,47,24.958,46.962z"/>
</svg>
